<svg xmlns="http://www.w3.org/2000/svg" viewBox="0 0 24 24" id="youtube-music">
  <g fill="#6569D4" fill-rule="evenodd">
    <path d="M10.2572,8.57125c-0.1544,-0.09268 -0.3468,-0.0951 -0.50355,-0.00635c-0.15675,0.08875 -0.25365,0.25496 -0.25365,0.4351v6c0,0.1801 0.0969,0.3463 0.25365,0.4351c0.15675,0.0888 0.34915,0.0863 0.50355,-0.0064l5,-3c0.1507,-0.0903 0.2428,-0.2531 0.2428,-0.4287c0,-0.1756 -0.0921,-0.3384 -0.2428,-0.4287l-5,-3.00005Z"></path>
    <path fill="#110638" d="M12,5.5c-3.58985,0 -6.5,2.91015 -6.5,6.5c0,3.5899 2.91015,6.5 6.5,6.5c3.5899,0 6.5,-2.9101 6.5,-6.5c0,-3.58985 -2.9101,-6.5 -6.5,-6.5Zm-7.5,6.5c0,-4.14214 3.35786,-7.5 7.5,-7.5c4.1421,0 7.5,3.35786 7.5,7.5c0,4.1421 -3.3579,7.5 -7.5,7.5c-4.14214,0 -7.5,-3.3579 -7.5,-7.5Z"></path>
    <path fill="#110638" d="M12,2.5c-5.24671,0 -9.5,4.25329 -9.5,9.5c0,5.2467 4.25329,9.5 9.5,9.5c5.2467,0 9.5,-4.2533 9.5,-9.5c0,-5.24671 -4.2533,-9.5 -9.5,-9.5Zm-10.5,9.5c0,-5.79899 4.70101,-10.5 10.5,-10.5c5.799,0 10.5,4.70101 10.5,10.5c0,5.799 -4.701,10.5 -10.5,10.5c-5.79899,0 -10.5,-4.701 -10.5,-10.5Z"></path>
  </g>
</svg>
